<svg width="26" height="27" viewBox="0 0 26 27" fill="none" xmlns="http://www.w3.org/2000/svg">
<path fill-rule="evenodd" clip-rule="evenodd" d="M23.8333 21.375V5.625C23.8333 3.76104 22.3783 2.25 20.5833 2.25H5.41667C3.62174 2.25 2.16667 3.76104 2.16667 5.625V21.375C2.16667 23.239 3.62174 24.75 5.41667 24.75H20.5833C22.3783 24.75 23.8333 23.239 23.8333 21.375ZM11.9104 7.875C11.9104 8.17497 12.0257 8.46251 12.2308 8.67375C12.5408 8.99827 13.009 9.09581 13.4154 8.92054C13.8219 8.74528 14.0859 8.33205 14.0833 7.875C14.0859 7.41795 13.8219 7.00472 13.4154 6.82946C13.009 6.65419 12.5408 6.75173 12.2308 7.07625C12.0257 7.28749 11.9104 7.57503 11.9104 7.875ZM21.6667 5.625C21.6667 5.00368 21.1816 4.5 20.5833 4.5H5.41667C4.81836 4.5 4.33333 5.00368 4.33333 5.625V21.375C4.33333 21.9963 4.81836 22.5 5.41667 22.5H20.5833C21.1816 22.5 21.6667 21.9963 21.6667 21.375V5.625ZM14.0833 18H14.235C14.8333 18 15.3183 18.5037 15.3183 19.125C15.3183 19.7463 14.8333 20.25 14.235 20.25H11.765C11.1667 20.25 10.6817 19.7463 10.6817 19.125C10.6817 18.5037 11.1667 18 11.765 18H11.9167V12.375C11.3184 12.375 10.8333 11.8713 10.8333 11.25C10.8333 10.6287 11.3184 10.125 11.9167 10.125H13C13.5983 10.125 14.0833 10.6287 14.0833 11.25V18Z" fill="#231F20"/>
</svg>
