<svg width="26" height="25" viewBox="0 0 26 25" fill="none" xmlns="http://www.w3.org/2000/svg">
<path fill-rule="evenodd" clip-rule="evenodd" d="M21.6667 8.0625L23.465 9.63542C23.9132 10.0154 23.9568 10.6725 23.5625 11.1042C23.1673 11.5351 22.4839 11.5771 22.035 11.1979L21.6667 10.8854V19.7917C21.6667 21.5176 20.2116 22.9167 18.4167 22.9167H15.1667C14.5684 22.9167 14.0833 22.4503 14.0833 21.875V16.6667C14.0879 16.3953 13.974 16.1346 13.7692 15.9479C13.5683 15.7453 13.2911 15.6289 13 15.625C12.4017 15.625 11.9167 16.0914 11.9167 16.6667V21.875C11.9167 22.4503 11.4316 22.9167 10.8333 22.9167H7.58333C5.78841 22.9167 4.33333 21.5176 4.33333 19.7917V10.8854L3.965 11.1979C3.51334 11.5477 2.8553 11.4935 2.47218 11.0748C2.08905 10.6562 2.11674 10.0217 2.535 9.63542L4.33333 8.0625L5.25417 7.29167L12.285 1.30208C12.694 0.956619 13.306 0.956619 13.715 1.30208L20.7458 7.29167L21.6667 8.0625ZM18.4167 20.8333C19.015 20.8333 19.5 20.367 19.5 19.7917V9.03125L13 3.47917L6.5 9.03125V19.7917C6.5 20.367 6.98502 20.8333 7.58333 20.8333H9.75V16.6667C9.75 14.9408 11.2051 13.5417 13 13.5417C14.7949 13.5417 16.25 14.9408 16.25 16.6667V20.8333H18.4167Z" fill="#231F20"/>
</svg>
